<svg xmlns="http://www.w3.org/2000/svg" viewBox="0 0 640 640"><!--! Font Awesome Pro 7.3.1 by @fontawesome - https://fontawesome.com License - https://fontawesome.com/license (Commercial License) Copyright 2026 Fonticons, Inc. --><path fill="currentColor" d="M416 544L362.7 544C348.9 544 335.4 539.5 324.3 531.2L213.3 448L160 448C126.9 448 99.6 422.8 96.3 390.5L96 384L96 256C96 220.7 124.7 192 160 192L213.3 192L324.2 108.8C335.4 100.5 348.8 96 362.7 96L416 96L416 544zM243.2 249.6L234.7 256L160 256L160 384L234.7 384L243.2 390.4L352 472L352 168L243.2 249.6zM480 200.2C533 214.3 572 262.6 572 320C572 377.4 533 425.7 480 439.8L480 380C501.4 368.6 516 346 516 320C516 294 501.4 271.4 480 260L480 200.2z"/></svg>