<svg xmlns="http://www.w3.org/2000/svg" viewBox="0 0 576 576"><!--! Font Awesome Pro 7.3.1 by @fontawesome - https://fontawesome.com License - https://fontawesome.com/license (Commercial License) Copyright 2026 Fonticons, Inc. --><path opacity=".4" fill="currentColor" d="M234 54C214.1 54 198 70.1 198 90L198 144L378 144L378 90C378 70.1 361.9 54 342 54L234 54zM162 180C112.3 180 72 220.3 72 270L72 360C72 379.9 88.1 396 108 396L162 396L162 360C162 320.2 194.2 288 234 288L342 288C381.8 288 414 320.2 414 360L414 396L468 396C487.9 396 504 379.9 504 360L504 270C504 220.3 463.7 180 414 180L162 180zM450 243C450 257.9 437.9 270 423 270C408.1 270 396 257.9 396 243C396 228.1 408.1 216 423 216C437.9 216 450 228.1 450 243zM234 324C214.1 324 198 340.1 198 360L198 432C198 451.9 214.1 468 234 468L342 468C361.9 468 378 451.9 378 432L378 360C378 340.1 361.9 324 342 324L234 324z"/><path fill="currentColor" d="M234 18C194.2 18 162 50.2 162 90L162 144C92.4 144 36 200.4 36 270L36 396C36 435.8 68.2 468 108 468L162 468C162 507.8 194.2 540 234 540L342 540C381.8 540 414 507.8 414 468L468 468C507.8 468 540 435.8 540 396L540 270C540 200.4 483.6 144 414 144L414 90C414 50.2 381.8 18 342 18L234 18zM342 54C361.9 54 378 70.1 378 90L378 144L198 144L198 90C198 70.1 214.1 54 234 54L342 54zM72 270C72 220.3 112.3 180 162 180L414 180C463.7 180 504 220.3 504 270L504 360C504 379.9 487.9 396 468 396L414 396L414 360C414 320.2 381.8 288 342 288L234 288C194.2 288 162 320.2 162 360L162 396L108 396C88.1 396 72 379.9 72 360L72 270zM423 216C408.1 216 396 228.1 396 243C396 257.9 408.1 270 423 270C437.9 270 450 257.9 450 243C450 228.1 437.9 216 423 216zM198 360C198 340.1 214.1 324 234 324L342 324C361.9 324 378 340.1 378 360L378 432C378 451.9 361.9 468 342 468L234 468C214.1 468 198 451.9 198 432L198 360z"/></svg>