<svg xmlns="http://www.w3.org/2000/svg" viewBox="0 0 640 640"><!--! Font Awesome Pro 7.3.1 by @fontawesome - https://fontawesome.com License - https://fontawesome.com/license (Commercial License) Copyright 2026 Fonticons, Inc. --><path fill="currentColor" d="M325.9 113.6C346.3 94.5 329.8 56.8 301.6 59.2C270.8 60.5 237.1 60.1 201.2 82C85.3 154.6 32.8 289.8 78.3 423.3C128.1 545.6 268.3 598.1 390.6 573C434.3 559.2 492.9 527.1 524.7 492.9C533.9 479.1 543.6 463.1 551.2 448.5C564.4 421.2 532 391.9 506.4 407.3C482.5 417.3 431.1 408.7 414 398.1C361.9 367.9 316.8 341.3 300.7 267C283 196.2 299.8 166.6 325.9 113.5zM246.9 130.5C207.8 216.3 238 350.2 314.1 408.6C356.1 438.9 394.1 468.6 447.9 473.9C400.1 504.3 368.8 521.5 310.8 513.1C87.6 504 67.6 221.7 246.8 130.4z"/></svg>