<svg xmlns="http://www.w3.org/2000/svg" viewBox="0 0 576 576"><!--! Font Awesome Pro 7.3.1 by @fontawesome - https://fontawesome.com License - https://fontawesome.com/license (Commercial License) Copyright 2026 Fonticons, Inc. --><path opacity=".4" fill="currentColor" d="M396 108L180 108C160.1 108 144 124.1 144 144L144 468C144 487.9 160.1 504 180 504L396 504C415.9 504 432 487.9 432 468L432 144C432 124.1 415.9 108 396 108z"/><path fill="currentColor" d="M432 144C432 124.1 415.9 108 396 108L180 108C160.1 108 144 124.1 144 144L144 468C144 487.9 160.1 504 180 504L396 504C415.9 504 432 487.9 432 468L432 144zM468 468C468 507.8 435.8 540 396 540L180 540C140.2 540 108 507.8 108 468L108 144C108 104.2 140.2 72 180 72L396 72C435.8 72 468 104.2 468 144L468 468z"/></svg>