<svg xmlns="http://www.w3.org/2000/svg" viewBox="0 0 576 576"><!--! Font Awesome Pro 7.3.1 by @fontawesome - https://fontawesome.com License - https://fontawesome.com/license (Commercial License) Copyright 2026 Fonticons, Inc. --><path opacity=".4" fill="currentColor" d="M45 288C45 295.5 51 301.5 58.5 301.5C66 301.5 72 295.5 72 288L351.9 288C389.9 288 414.8 257 415 225.1C415.1 217.6 409.1 211.6 401.6 211.5C394.2 211.4 388.1 217.4 388 224.9C387.9 243.7 373.3 261 351.9 261L72 261C57.1 261 45 273.1 45 288zM279 90C279 97.5 285 103.5 292.5 103.5C300 103.5 306 97.5 306 90C311.3 95.3 319.8 95.3 325.1 90C330.4 84.7 330.4 76.2 325.1 70.9C314.6 60.4 297.5 60.4 286.9 70.9C281.6 76.2 279 83.1 279 90zM286.9 466.9C281.6 472.2 281.6 480.7 286.9 486C292.2 491.3 300.7 491.3 306 486L396.5 395.5C409.3 382.7 415.2 366.6 415.1 350.9C415 343.4 409 337.4 401.5 337.5C397.8 337.5 394.4 339.1 392 341.5C390.8 342.7 389.8 344.2 389.1 345.8C388.8 346.6 388.5 347.5 388.3 348.3C388.1 349.1 388 350.1 388 351C388.1 359.8 384.9 368.8 377.4 376.4L286.9 466.9z"/><path fill="currentColor" d="M267.8 51.8C246.7 72.9 246.7 107.1 267.8 128.2L358.3 218.7C364 224.4 360 234.1 351.9 234.1L72 234C42.2 234 18 258.2 18 288C18 317.8 42.2 342 72 342L351.9 342C359.9 342 363.9 351.7 358.3 357.4L267.8 447.9C246.7 469 246.7 503.2 267.8 524.3C288.9 545.4 323.1 545.4 344.2 524.3L542.2 326.3C563.3 305.2 563.3 271 542.2 249.9L344.2 51.9C323.1 30.8 288.9 30.8 267.8 51.9zM45 288C45 273.1 57.1 261 72 261L351.9 261C373.3 261 387.9 243.7 388 224.9C388.1 217.4 394.1 211.4 401.6 211.5C409.1 211.6 415.1 217.6 415 225.1C414.8 257 389.9 288 351.9 288L72 288C72 295.5 66 301.5 58.5 301.5C51 301.5 45 295.5 45 288zM279 90C279 83.1 281.6 76.2 286.9 70.9C297.4 60.4 314.5 60.4 325.1 70.9C330.4 76.2 330.4 84.7 325.1 90C319.8 95.3 311.3 95.3 306 90C306 97.5 300 103.5 292.5 103.5C285 103.5 279 97.5 279 90zM286.9 466.9L377.4 376.4C384.9 368.9 388.1 359.8 388 351C387.9 343.5 393.9 337.5 401.4 337.4C408.9 337.3 414.9 343.3 415 350.8C415.1 366.6 409.3 382.6 396.4 395.4L306 486C300.7 491.3 292.2 491.3 286.9 486C281.6 480.7 281.6 472.2 286.9 466.9z"/></svg>