<svg xmlns="http://www.w3.org/2000/svg" viewBox="0 0 576 576"><!--! Font Awesome Pro 7.3.1 by @fontawesome - https://fontawesome.com License - https://fontawesome.com/license (Commercial License) Copyright 2026 Fonticons, Inc. --><path opacity=".4" fill="currentColor" d="M312 24C207.7 24 117.5 84.5 74.7 172.3L192 254.4L192 120L432 288L192 456L192 321.6L74.7 403.7C117.5 491.5 207.7 552 312 552C457.8 552 576 433.8 576 288C576 142.2 457.8 24 312 24zM0 120L0 456L74.7 403.7Q74.5 403.4 74.4 403Q74.3 402.6 74.1 402.3Q74 402.1 73.9 401.8Q73.8 401.5 73.6 401.2Q73.4 400.8 73.2 400.4Q73.1 400.2 73 399.9Q72.9 399.6 72.7 399.4Q72.6 399.1 72.4 398.8Q72.2 398.4 72.1 398.1Q71.9 397.7 71.7 397.3Q71.5 396.8 71.3 396.4Q71.2 396.2 71.1 395.9Q71 395.6 70.9 395.4Q70.8 395.1 70.7 394.8Q70.6 394.5 70.4 394.2Q70.3 393.9 70.1 393.6Q70 393.3 69.8 392.9Q69.6 392.5 69.5 392.2Q69.3 391.8 69.2 391.4Q69 391 68.9 390.6Q68.7 390.2 68.5 389.7Q68.3 389.2 68.1 388.8Q68 388.6 67.9 388.3Q67.8 388 67.7 387.8Q67.6 387.6 67.5 387.3Q67.4 387 67.3 386.8Q67.2 386.6 67.1 386.3Q67 386 66.9 385.7Q66.8 385.4 66.7 385.1Q66.6 384.8 66.5 384.5Q66.4 384.2 66.3 383.9Q66.2 383.6 66.1 383.3Q66 383 65.8 382.6Q65.7 382.3 65.5 381.9Q65.4 381.5 65.2 381.2Q65.1 380.8 64.9 380.5Q64.8 380.1 64.6 379.8Q64.5 379.4 64.3 379Q64.2 378.6 64 378.2Q63.9 377.8 63.7 377.4Q63.5 377 63.4 376.5Q63.2 376.1 63.1 375.6Q62.9 375.1 62.8 374.7Q62.6 374.2 62.5 373.8Q62.3 373.3 62.2 372.8Q62.1 372.6 62 372.3Q61.9 372 61.8 371.8Q61.7 371.6 61.6 371.3Q61.5 371 61.4 370.8Q61.3 370.6 61.2 370.3Q61.1 370 61 369.8Q60.9 369.6 60.8 369.3Q60.7 369 60.6 368.8Q60.5 368.6 60.4 368.2Q60.3 367.8 60.2 367.6Q60.1 367.4 60 367Q59.9 366.6 59.8 366.4Q59.7 366.2 59.6 365.8Q59.5 365.4 59.4 365.2Q59.3 365 59.2 364.6Q59.1 364.2 59 364Q58.9 363.8 58.8 363.4Q58.7 363 58.6 362.8Q58.5 362.6 58.4 362.1Q58.3 361.6 58.2 361.4Q58.1 361.2 58 360.7Q57.9 360.2 57.8 360Q57.7 359.8 57.6 359.3Q57.5 358.8 57.4 358.6Q57.3 358.4 57.2 357.9Q57.1 357.4 57 357.2Q56.9 357 56.8 356.5Q56.7 356 56.6 355.7Q56.5 355.4 56.4 354.9Q56.3 354.4 56.2 354.1Q56.1 353.8 56 353.3Q55.9 352.8 55.8 352.5Q55.7 352.2 55.6 351.7Q55.5 351.2 55.4 350.9Q55.3 350.6 55.2 350.1Q55.1 349.6 55 349.2Q54.9 348.8 54.8 348.3Q54.7 347.8 54.6 347.4Q54.5 347 54.4 346.5Q54.3 346 54.2 345.6Q54.1 345.2 54 344.7Q53.9 344.2 53.8 343.8Q53.7 343.4 53.6 342.8Q53.5 342.2 53.4 341.8Q53.3 341.4 53.2 340.8Q53.1 340.2 53 339.8Q52.9 339.4 52.8 338.8Q52.7 338.2 52.6 337.8Q52.5 337.4 52.4 336.8Q52.4 336.5 52.3 336.3Q52.2 336.1 52.2 335.8Q52.2 335.5 52.1 335.3Q52 335.1 52 334.8Q52 334.5 51.9 334.3Q51.8 334.1 51.8 333.8Q51.8 333.5 51.7 333.2Q51.6 332.9 51.6 332.6Q51.6 332.3 51.5 332Q51.4 331.7 51.4 331.4Q51.4 331.1 51.3 330.8Q51.2 330.5 51.2 330.2Q51.2 329.9 51.1 329.6Q51 329.3 51 329Q51 328.7 50.9 328.4Q50.8 328.1 50.8 327.8Q50.8 327.5 50.7 327.2Q50.6 326.9 50.6 326.6Q50.6 326.3 50.5 326Q50.4 325.7 50.4 325.4Q50.4 325.1 50.3 324.8Q50.2 324.5 50.2 324.2Q50.2 323.9 50.1 323.6Q50 323.3 50 323Q50 322.7 49.9 322.4Q49.8 322.1 49.8 321.8Q49.8 321.5 49.7 321.2Q49.6 320.9 49.6 320.5Q49.6 320.1 49.5 319.8Q49.4 319.5 49.4 319.1Q49.4 318.7 49.3 318.4Q49.2 318.1 49.2 317.7Q49.2 317.3 49.1 317Q49 316.7 49 316.3Q49 315.9 48.9 315.6Q48.8 315.3 48.8 314.9Q48.8 314.5 48.7 314.2Q48.6 313.9 48.6 313.5Q48.6 313.1 48.5 312.8Q48.4 312.5 48.4 312.1Q48.4 311.7 48.3 311.4Q48.2 311.1 48.2 310.7Q48.2 310.3 48.1 310Q48 309.7 48 309.3Q48 308.9 47.9 308.6Q47.8 308.3 47.8 307.9Q47.8 307.5 47.7 307.1Q47.6 306.7 47.6 306.3Q47.6 305.9 47.5 305.5Q47.4 305.1 47.5 304.7Q47.6 304.3 47.5 303.9Q47.4 303.5 47.5 303.1Q47.6 302.7 47.5 302.3Q47.4 301.9 47.5 301.5Q47.6 301.1 47.5 300.7Q47.4 300.3 47.5 299.9Q47.6 299.5 47.5 299.1Q47.4 298.7 47.5 298.3Q47.6 297.9 47.5 297.5Q47.4 297.1 47.5 296.7Q47.6 296.3 47.5 295.9Q47.4 295.5 47.5 295.1Q47.6 294.7 47.5 294.2Q47.4 293.7 47.5 293.3Q47.6 292.9 47.5 292.4Q47.4 291.9 47.5 291.5Q47.6 291.1 47.5 290.6Q47.4 290.1 47.5 289.7Q47.6 289.3 47.5 288.8Q47.4 288.3 47.5 287.9Q47.6 287.5 47.5 287Q47.4 286.5 47.5 286.1Q47.5 285.8 47.5 285.5Q47.5 285.1 47.5 284.7Q47.5 284.2 47.5 283.6Q47.5 283.3 47.5 283Q47.5 282.7 47.5 282.3Q47.5 281.9 47.5 281.5Q47.5 281 47.5 280.6Q47.5 280.1 47.5 279.6Q47.5 279.3 47.5 279Q47.5 278.7 47.5 278.4Q47.5 278.1 47.5 277.8Q47.5 277.5 47.5 277.1Q47.5 276.7 47.5 276.4Q47.5 276 47.5 275.6Q47.5 275.2 47.5 274.8Q47.5 274.4 47.5 273.9Q47.5 273.4 47.6 273Q47.6 272.5 47.7 272Q47.7 271.5 47.8 270.9Q47.8 270.6 47.8 270.4Q47.8 270.2 47.8 269.8Q47.8 269.4 47.8 269.2Q47.8 269 47.8 268.6Q47.8 268.2 47.8 268Q47.8 267.7 47.8 267.4Q47.8 267.1 47.9 266.7Q47.9 266.4 48 266Q48 265.6 48.1 265.3Q48.1 264.9 48.2 264.6Q48.2 264.2 48.3 263.8Q48.3 263.4 48.4 263Q48.4 262.6 48.5 262.2Q48.5 261.8 48.6 261.4Q48.6 261 48.7 260.5Q48.7 260.1 48.8 259.6Q48.8 259.1 48.9 258.7Q49 258.2 49 257.8Q49.1 257.3 49.1 256.8Q49.2 256.3 49.2 255.8Q49.3 255.3 49.3 254.8Q49.4 254.3 49.4 253.7Q49.4 253.4 49.5 253.2Q49.6 253 49.6 252.7Q49.6 252.4 49.7 252.1Q49.8 251.8 49.8 251.5Q49.8 251.2 49.9 250.9Q50 250.6 50 250.3Q50 250 50.1 249.7Q50.2 249.4 50.2 249.1Q50.2 248.8 50.3 248.5Q50.4 248.2 50.4 247.9Q50.4 247.6 50.5 247.3Q50.6 247 50.6 246.7Q50.6 246.4 50.7 246Q50.8 245.6 50.8 245.3Q50.8 245 50.9 244.6Q51 244.2 51 243.9Q51 243.6 51.1 243.2Q51.2 242.8 51.2 242.5Q51.2 242.2 51.3 241.8Q51.4 241.4 51.4 241.1Q51.4 240.8 51.5 240.4Q51.6 240 51.6 239.6Q51.6 239.2 51.7 238.8Q51.8 238.4 51.8 238Q51.8 237.6 52 237.2Q52.2 236.8 52.2 236.4Q52.2 236 52.4 235.6Q52.6 235.2 52.6 234.8Q52.6 234.4 52.8 234Q53 233.6 53 233.1Q53 232.6 53.2 232.2Q53.4 231.8 53.4 231.3Q53.4 230.8 53.6 230.4Q53.8 230 53.8 229.5Q53.8 229 54 228.6Q54.2 228.2 54.2 227.7Q54.2 227.2 54.4 226.7Q54.6 226.2 54.6 225.7Q54.6 225.2 54.8 224.7Q55 224.2 55 223.7Q55 223.2 55.3 222.7Q55.4 222.4 55.4 222.2Q55.4 222 55.5 221.7Q55.6 221.4 55.6 221.2Q55.6 221 55.7 220.7Q55.8 220.4 55.8 220.2Q55.8 220 55.9 219.7Q56 219.4 56 219.2Q56 219 56.1 218.7Q56.2 218.4 56.2 218.2Q56.2 218 56.4 217.7Q56.6 217.4 56.6 217.1Q56.6 216.8 56.8 216.5Q57 216.2 57 215.9Q57 215.6 57.2 215.3Q57.4 215 57.4 214.7Q57.4 214.4 57.6 214.1Q57.8 213.8 57.8 213.5Q57.8 213.2 58 212.9Q58.2 212.6 58.2 212.3Q58.2 212 58.4 211.7Q58.6 211.4 58.6 211.1Q58.6 210.8 58.8 210.5Q59 210.2 59 209.9Q59 209.6 59.2 209.3Q59.4 209 59.4 208.7Q59.4 208.4 59.6 208.1Q59.8 207.8 59.8 207.5Q59.8 207.2 60 206.9Q60.2 206.6 60.2 206.3Q60.2 206 60.4 205.7Q60.6 205.4 60.6 205.1Q60.6 204.8 60.8 204.4Q61 204 61 203.7Q61 203.4 61.2 203Q61.4 202.6 61.4 202.3Q61.4 202 61.6 201.6Q61.8 201.2 61.8 200.9Q61.8 200.6 62 200.2Q62.2 199.8 62.2 199.5Q62.2 199.2 62.4 198.8Q62.6 198.4 62.7 198.1Q62.8 197.8 63 197.4Q63.2 197 63.3 196.7Q63.4 196.4 63.6 196Q63.8 195.6 63.9 195.3Q64 195 64.2 194.6Q64.4 194.2 64.5 193.9Q64.6 193.6 64.8 193.2Q65 192.8 65.1 192.5Q65.2 192.2 65.4 191.7Q65.6 191.2 65.7 190.9Q65.8 190.6 66 190.1Q66.2 189.6 66.3 189.3Q66.4 189 66.6 188.5Q66.8 188 66.9 187.7Q67 187.4 67.2 186.9Q67.4 186.4 67.5 186.1Q67.6 185.8 67.8 185.3Q68 184.8 68.1 184.5Q68.2 184.2 68.4 183.7Q68.6 183.2 68.8 182.9Q69 182.6 69.2 182.1Q69.4 181.6 69.6 181.3Q69.8 181 70 180.5Q70.2 180 70.4 179.7Q70.6 179.4 70.8 178.8Q71 178.2 71.2 177.9Q71.4 177.6 71.6 177Q71.8 176.4 72 176.1Q72.2 175.8 72.4 175.2Q72.6 174.6 72.8 174.3Q73 174 73.2 173.4Q73.4 172.8 73.6 172.5Q73.7 172.3 73.8 172L0 120z"/><path fill="currentColor" d="M192 120L192 254.4L74.7 172.3C57.6 207.2 48 246.5 48 288C48 329.5 57.6 368.8 74.7 403.7L192 321.6L192 456L432 288L192 120z"/></svg>