<svg xmlns="http://www.w3.org/2000/svg" viewBox="0 0 576 576"><!--! Font Awesome Pro 7.3.1 by @fontawesome - https://fontawesome.com License - https://fontawesome.com/license (Commercial License) Copyright 2026 Fonticons, Inc. --><path fill="currentColor" d="M0 0L0 48C26.5 48 48 69.5 48 96L48 576L528 576L528 96C528 43 485 0 432 0L0 0zM131.2 48L168 48C194.5 48 216 69.5 216 96L216 120L144 120L144 96C144 78.5 139.3 62.1 131.2 48zM144 168L216 168L216 264L144 264L144 168zM144 312L216 312L216 408L144 408L144 312zM144 456L216 456L216 528L144 528L144 456zM251.2 48L312 48C338.5 48 360 69.5 360 96L360 528L264 528L264 96C264 78.5 259.3 62.1 251.2 48zM408 312L480 312L480 408L408 408L408 312zM408 528L408 456L480 456L480 528L408 528zM408 264L408 168L480 168L480 264L408 264zM408 120L408 96C408 78.5 403.3 62.1 395.2 48L432 48C458.5 48 480 69.5 480 96L480 120L408 120z"/></svg>