<svg xmlns="http://www.w3.org/2000/svg" viewBox="0 0 576 576"><!--! Font Awesome Pro 7.3.1 by @fontawesome - https://fontawesome.com License - https://fontawesome.com/license (Commercial License) Copyright 2026 Fonticons, Inc. --><path fill="currentColor" d="M189.1 74.5C183.5 71.2 176.6 71.2 171 74.5C167.6 76.5 164.4 78.7 161.2 80.9C155.6 84.8 148.1 90.6 140.6 97.9C126.3 111.6 108.1 134.1 108.1 162.1C108.1 183.6 117.5 202.9 132.5 216.1C117.6 229.3 108.1 248.6 108.1 270.1L108.1 279.7C86.5 292.1 72 315.3 72 342L72 450C72 489.8 104.2 522 144 522L432 522C471.8 522 504 489.8 504 450L504 342C504 315.3 489.5 292.1 468 279.6L468 270C468 248.5 458.6 229.2 443.6 216C458.5 202.8 468 183.5 468 162C468 134 449.8 111.5 435.5 97.8C427.9 90.6 420.5 84.8 414.9 80.8C411.7 78.6 408.5 76.4 405.1 74.4C399.5 71.1 392.6 71.1 387 74.4C383.7 76.4 380.4 78.6 377.2 80.8C371.6 84.7 364.1 90.5 356.6 97.8C351.9 102.3 346.8 107.7 342.1 114C337.4 107.7 332.2 102.3 327.6 97.8C320 90.6 312.6 84.8 307 80.8C303.8 78.6 300.6 76.4 297.2 74.4C291.6 71.1 284.7 71.1 279.1 74.4C275.8 76.4 272.5 78.6 269.3 80.8C263.7 84.7 256.2 90.5 248.7 97.8C244 102.3 238.9 107.7 234.2 114C229.5 107.7 224.3 102.3 219.7 97.8C212.1 90.6 204.7 84.8 199.1 80.8C195.9 78.6 192.7 76.4 189.3 74.4zM468 363L409.5 373.6C394.6 376.3 379.3 376.3 364.4 373.6L317 365C297.8 361.5 278.2 361.5 259 365L211.5 373.6C196.6 376.3 181.3 376.3 166.4 373.6L108 363L108 342C108 326.4 118 313 132 308C139.2 305.5 144 298.7 144 291L144 270C144 250.1 160.1 234 180 234C199.9 234 216 250.1 216 270L216 288C216 297.9 224.1 306 234 306C243.9 306 252 297.9 252 288L252 270C252 250.1 268.1 234 288 234C307.9 234 324 250.1 324 270L324 288C324 297.9 332.1 306 342 306C351.9 306 360 297.9 360 288L360 270C360 250.1 376.1 234 396 234C415.9 234 432 250.1 432 270L432 291.1C432 298.7 436.8 305.5 444 308.1C458 313.1 468 326.4 468 342.1L468 363.1zM108 399.6L160 409C179.2 412.5 198.8 412.5 218 409L265.5 400.4C280.4 397.7 295.7 397.7 310.6 400.4L358 409C377.2 412.5 396.8 412.5 416 409L468 399.5L468 449.9C468 469.8 451.9 485.9 432 485.9L144 486C124.1 486 108 469.9 108 450L108 399.6zM432 162C432 181.9 415.9 198 396 198C376.1 198 360 181.9 360 162C360 149.5 368.8 136 381.5 123.8C386.6 118.9 391.8 114.8 396 111.7C400.2 114.8 405.4 118.9 410.5 123.8C423.2 136 432 149.4 432 162zM302.5 123.8C315.2 136 324 149.4 324 162C324 181.9 307.9 198 288 198C268.1 198 252 181.9 252 162C252 149.5 260.8 136 273.5 123.8C278.6 118.9 283.8 114.8 288 111.7C292.2 114.8 297.4 118.9 302.5 123.8zM216 162C216 181.9 199.9 198 180 198C160.1 198 144 181.9 144 162C144 149.5 152.8 136 165.5 123.8C170.6 118.9 175.8 114.8 180 111.7C184.2 114.8 189.4 118.9 194.5 123.8C207.2 136 216 149.4 216 162z"/></svg>